PathFileType	4	(X/Y/Z)	RBDS022\RBDS022runT25.trc
DataRate	CameraRate	NumFrames	NumMarkers	Units	OrigDataRate	OrigDataStartFrame	OrigNumFrames
150.000000	150.000000	4	33	mm	150.000000	2812	4500
Frame#	Time	L.ASIS			L.Heel.Bottom			L.Heel.Lateral			L.Heel.Top			L.Iliac.Crest			L.MT1			L.MT5			L.PSIS			L.Shank.Bottom.Lateral			L.Shank.Bottom.Medial			L.Shank.Top.Lateral			L.Shank.Top.Medial			L.Thigh.Bottom.Lateral			L.Thigh.Bottom.Medial			L.Thigh.Top.Lateral			L.Thigh.Top.Medial			R.ASIS			R.ASY			R.Heel.Bottom			R.Heel.Lateral			R.Heel.Top			R.Iliac.Crest			R.MT1			R.MT5			R.PSIS			R.Shank.Bottom.Lateral			R.Shank.Bottom.Medial			R.Shank.Top.Lateral			R.Shank.Top.Medial			R.Thigh.Bottom.Lateral			R.Thigh.Bottom.Medial			R.Thigh.Top.Lateral			R.Thigh.Top.Medial			
		X1	Y1	Z1	X2	Y2	Z2	X3	Y3	Z3	X4	Y4	Z4	X5	Y5	Z5	X6	Y6	Z6	X7	Y7	Z7	X8	Y8	Z8	X9	Y9	Z9	X10	Y10	Z10	X11	Y11	Z11	X12	Y12	Z12	X13	Y13	Z13	X14	Y14	Z14	X15	Y15	Z15	X16	Y16	Z16	X17	Y17	Z17	X18	Y18	Z18	X19	Y19	Z19	X20	Y20	Z20	X21	Y21	Z21	X22	Y22	Z22	X23	Y23	Z23	X24	Y24	Z24	X25	Y25	Z25	X26	Y26	Z26	X27	Y27	Z27	X28	Y28	Z28	X29	Y29	Z29	X30	Y30	Z30	X31	Y31	Z31	X32	Y32	Z32	X33	Y33	Z33	

2813	18.74666666666667	2283.098679540778	977.6917426998904	908.2492561277314	1752.099146812226	162.4047278244996	1006.411623864578	1788.333092217662	162.7943930146579	959.8238994520671	1785.284307659723	194.3099221903039	1007.057201682868	2227.407963240742	1069.3684748166	863.8825441076984	1932.372647047081	46.27490751576229	1032.943739714203	1898.251992430298	60.20284025139867	921.986794254579	2118.618955444801	1029.217417187086	981.2532927230533	1885.544905509972	245.0609870870747	935.2861514273549	1853.31323885241	271.1700948698526	972.3617156740197	1918.478271474458	315.1108552586683	914.7893144681595	1886.940470555757	341.3839945565443	949.6721126589437	2116.902899442243	628.4816295348228	877.7068451361994	2058.3521962773	652.3974539250976	914.4437633302017	2141.145315064667	731.6919540768861	850.7966132893284	2086.48874994588	754.397680536898	887.8737355301071	2278.582026132663	987.699127804524	1142.079238293037	2410.813056106837	108.5498989608549	1108.917289531392	2226.083897031108	62.07127415395313	1072.608847755551	2249.975968845336	76.91995740996101	1122.820843215091	2234.812919302649	105.0372274024041	1077.560720830706	2219.761779900627	1065.618026922602	1184.121435776785	2438.455295526949	68.22774150644052	1061.495924601056	2403.110476595681	53.46512203804433	1168.652668702111	2118.752362172995	1027.618720221978	1068.714556566915	2282.868817578882	202.5276369798863	1147.045555007398	2254.215861615587	215.8401682169305	1106.544742413897	2292.264687783924	284.791722401846	1166.102040043354	2258.095022825439	294.4504107619136	1126.12918444023	2329.921757475465	628.252251171609	1188.933891794852	2273.290487139827	606.4036116921488	1152.192943983262	2282.5238746273	727.328909578084	1205.808693872079	2226.54484828309	704.5747524308346	1174.482137934021	
2814	18.75333333333333	2284.812291408227	979.6168371947714	909.0893144027749	1744.803823598077	173.7501203067564	1006.911787983766	1780.848284977612	172.1156596926543	960.2100093015913	1779.617761190435	203.8793607199666	1007.334403254585	2230.294756989643	1072.188352427826	864.8586515128814	1919.033505227599	48.44554866982974	1032.756139418202	1885.125608653623	63.84603432714572	922.1108929749194	2120.485627421916	1031.820854051266	981.7657552640055	1878.795675851579	250.8859266282815	935.1040693956263	1847.220818087506	277.1018128910081	972.6327759554358	1912.5254752854	320.740656078	914.9617551349431	1881.506920664333	347.1512419769234	950.2017982886449	2114.622102977505	631.7792378295469	877.9745153427566	2056.847313279179	656.3782644111606	915.5468937421762	2139.9696825133	734.7314214429432	851.1458113983911	2086.09676545868	758.0741105155796	889.077604505994	2279.586796644663	990.0097188541425	1142.566347337702	2429.847012976514	110.5548008398555	1109.992699797208	2248.525753429915	53.91985747018988	1070.822530398048	2271.025267258048	69.60114452538559	1121.441124405633	2254.659850641304	97.23965393716946	1076.354674334769	2220.304684671785	1069.11711651564	1184.573307029956	2460.367304554956	72.59613035395662	1062.578224232015	2424.726296109119	54.50448301756438	1169.123197337865	2120.30343976672	1030.380328644002	1069.348735397402	2296.040138744826	197.8510144629474	1146.276941026635	2267.53515259905	209.6325562978189	1105.190671969527	2300.601559538016	280.4630304041423	1165.453515383389	2266.820441901675	288.3321512568703	1124.805210724236	2326.003539460925	627.8977138888411	1189.469736856871	2269.243137183843	607.1413375845829	1152.390986718033	2280.297483353566	727.6667561197311	1206.458967270252	2224.017357985954	706.053630306856	1174.813104482708	
2815	18.76	2286.44737767886	981.2357721591939	909.8552628387175	1738.18311117019	185.0845518230915	1007.53281296921	1773.933844331496	181.4823313428681	960.7057365735851	1774.524389274175	213.3753675215191	1007.71701617168	2232.960884541596	1074.625730437753	865.8107653491172	1906.06814433611	50.96213252509352	1032.599042585063	1872.315567998942	67.87423029637873	922.3326988830387	2122.29221373843	1034.079833138311	982.3033357227591	1872.640032809944	256.4943592177154	935.0020050002704	1841.707991019144	282.9082691122603	972.9015567736	1907.301719351406	326.0642781814078	915.1874414300891	1876.850512830287	352.6940916577167	950.7474555362603	2113.189046088293	634.4509772557552	878.3840470106223	2056.06793923215	659.5775719865635	916.6436215600129	2139.415791750399	737.1842595278473	851.6091624183664	2086.181121111364	761.0271606584756	890.2507803167059	2280.593937126145	991.7689274208989	1142.978256906049	2447.219809154249	112.9942110983658	1111.099405546682	2269.566689325772	47.19365056411115	1068.902957931417	2290.70350819665	63.42858561006391	1119.965031934909	2273.267672659209	90.7030300501862	1075.0801538335	2220.886186804646	1071.943125340705	1185.026238161073	2480.34856707124	77.53329885740135	1063.642234447666	2444.505853060732	55.94681658839809	1169.472544463364	2121.851986113148	1032.747171783345	1070.000096792197	2308.189041245002	193.851555755129	1145.44972320076	2279.969622806391	204.2702291815655	1103.798016903639	2308.221590453493	276.5720252748368	1164.710459209457	2274.959694115088	282.8335383860615	1123.399856065428	2322.235082138493	627.2041095123931	1190.194635063121	2265.415726440478	607.5393514072508	1152.665211882801	2278.166729978664	727.5975187886513	1207.265717762652	2221.640217340439	707.1109455967096	1175.209963435622	
2816	18.76666666666667	2287.982755912293	982.505773085243	910.5505063951167	1732.174950837072	196.3250012619252	1008.278936300992	1767.528211119605	190.8418676865566	961.3035759106343	1769.92112715448	222.7475169806493	1008.200700018937	2235.363777535265	1076.655459000492	866.7454039251926	1893.511986417501	53.83356070678816	1032.447712753718	1859.853209896023	72.28253466798168	922.6294662360191	2124.014097450138	1035.951447635203	982.8572799044936	1867.044007960227	261.8895296943903	934.983661451603	1836.748748937112	288.6030601493651	973.1735380535383	1902.785543972274	331.0638698224054	915.4627513558961	1872.960970294026	358.0011636275407	951.3044200869945	2112.644757012139	636.3875404439571	878.9456289985428	2056.021532362776	661.8842371624987	917.7084659212592	2139.524052362166	738.952578788153	852.2090041296377	2086.743023339236	763.1547440298649	891.3642620431573	2281.580761634687	992.9753420534485	1143.339691220197	2462.683566240212	115.6080491946743	1112.178208903496	2288.744033903781	41.78885618900578	1066.909876407252	2308.598085578098	58.31278125443335	1118.439953319095	2290.234176764361	85.35308603191125	1073.778863514134	2221.527845365481	1074.049745571334	1185.499923221044	2498.101233982173	82.68085009548454	1064.61797985574	2462.150800513854	57.52708068330726	1169.655465629166	2123.362516231768	1034.678235645518	1070.662512544004	2319.089874549373	190.4635320219583	1144.58782345737	2291.264508396535	199.7088321764755	1102.40656809631	2314.999419792714	273.1080672666623	1163.900940333145	2282.346723876059	277.9707367402456	1121.95772847372	2318.750586614772	626.2539916613636	1191.055438103261	2261.938851966158	607.6368266698289	1152.985154053076	2276.195019807853	727.1785340672484	1208.182481884695	2219.491601308332	707.7630596623845	1175.631835709831	
